<svg width="84" height="42" viewBox="0 0 84 42" fill="none" xmlns="http://www.w3.org/2000/svg">
<path opacity="0.5" d="M0 42L84 42C84 18.6667 65.4271 7.80211e-07 42.2111 5.03362e-07C18.995 2.26513e-07 2.78247e-07 18.6667 0 42Z" fill="#F9436C"/>
<path d="M42.7071 8.29289C42.3166 7.90237 41.6834 7.90237 41.2929 8.29289L34.9289 14.6569C34.5384 15.0474 34.5384 15.6805 34.9289 16.0711C35.3195 16.4616 35.9526 16.4616 36.3431 16.0711L42 10.4142L47.6569 16.0711C48.0474 16.4616 48.6805 16.4616 49.0711 16.0711C49.4616 15.6805 49.4616 15.0474 49.0711 14.6569L42.7071 8.29289ZM43 24L43 9L41 9L41 24L43 24Z" fill="white"/>
</svg>
