<svg width="84" height="42" viewBox="0 0 84 42" fill="none" xmlns="http://www.w3.org/2000/svg">
<path opacity="0.5" d="M0 42L84 42C84 18.6667 65.4271 7.80211e-07 42.2111 5.03362e-07C18.995 2.26513e-07 2.78247e-07 18.6667 0 42Z" fill="#F9436C"/>
<path d="M42.7071 8.29289C42.3166 7.90237 41.6834 7.90237 41.2929 8.29289L34.9289 14.6569C34.5384 15.0474 34.5384 15.6805 34.9289 16.0711C35.3195 16.4616 35.9526 16.4616 36.3431 16.0711L42 10.4142L47.6569 16.0711C48.0474 16.4616 48.6805 16.4616 49.0711 16.0711C49.4616 15.6805 49.4616 15.0474 49.0711 14.6569L42.7071 8.29289ZM43 24L43 9L41 9L41 24L43 24Z" fill="white"/>
<path d="M27.3011 32.267V33.2045H23.6875V32.267H27.3011ZM23.9261 29.4545V36H22.9205V29.4545H23.9261ZM28.0682 29.4545V36H27.0625V29.4545H28.0682ZM31.831 36.1534C31.4162 36.1534 31.0398 36.0753 30.7017 35.919C30.3636 35.7599 30.0952 35.5312 29.8963 35.233C29.6974 34.9318 29.598 34.5682 29.598 34.142C29.598 33.767 29.6719 33.4631 29.8196 33.2301C29.9673 32.9943 30.1648 32.8097 30.4119 32.6761C30.6591 32.5426 30.9318 32.4432 31.2301 32.3778C31.5313 32.3097 31.8338 32.2557 32.1378 32.2159C32.5355 32.1648 32.858 32.1264 33.1051 32.1009C33.3551 32.0724 33.5369 32.0256 33.6506 31.9602C33.767 31.8949 33.8253 31.7812 33.8253 31.6193V31.5852C33.8253 31.1648 33.7102 30.8381 33.4801 30.6051C33.2528 30.3722 32.9077 30.2557 32.4446 30.2557C31.9645 30.2557 31.5881 30.3608 31.3153 30.571C31.0426 30.7812 30.8509 31.0057 30.7401 31.2443L29.7855 30.9034C29.956 30.5057 30.1832 30.196 30.4673 29.9744C30.7543 29.75 31.0668 29.5937 31.4048 29.5057C31.7457 29.4148 32.081 29.3693 32.4105 29.3693C32.6207 29.3693 32.8622 29.3949 33.1349 29.446C33.4105 29.4943 33.6761 29.5952 33.9318 29.7486C34.1903 29.902 34.4048 30.1335 34.5753 30.4432C34.7457 30.7528 34.831 31.1676 34.831 31.6875V36H33.8253V35.1136H33.7741C33.706 35.2557 33.5923 35.4077 33.4332 35.5696C33.2741 35.7315 33.0625 35.8693 32.7983 35.983C32.5341 36.0966 32.2116 36.1534 31.831 36.1534ZM31.9844 35.25C32.3821 35.25 32.7173 35.1719 32.9901 35.0156C33.2656 34.8594 33.473 34.6577 33.6122 34.4105C33.7543 34.1634 33.8253 33.9034 33.8253 33.6307V32.7102C33.7827 32.7614 33.6889 32.8082 33.544 32.8509C33.402 32.8906 33.2372 32.9261 33.0497 32.9574C32.8651 32.9858 32.6847 33.0114 32.5085 33.0341C32.3352 33.054 32.1946 33.071 32.0866 33.0852C31.8253 33.1193 31.581 33.1747 31.3537 33.2514C31.1293 33.3253 30.9474 33.4375 30.8082 33.5881C30.6719 33.7358 30.6037 33.9375 30.6037 34.1932C30.6037 34.5426 30.733 34.8068 30.9915 34.9858C31.2528 35.1619 31.5838 35.25 31.9844 35.25ZM36.6665 36V29.4545H39.3427C40.0472 29.4545 40.6069 29.6136 41.0217 29.9318C41.4364 30.25 41.6438 30.6705 41.6438 31.1932C41.6438 31.5909 41.5259 31.8991 41.2901 32.1179C41.0543 32.3338 40.7518 32.4801 40.3825 32.5568C40.6239 32.5909 40.8583 32.6761 41.0856 32.8125C41.3157 32.9489 41.506 33.1364 41.6566 33.375C41.8072 33.6108 41.8825 33.9006 41.8825 34.2443C41.8825 34.5795 41.7972 34.8793 41.6268 35.1435C41.4563 35.4077 41.212 35.6165 40.8938 35.7699C40.5756 35.9233 40.195 36 39.7518 36H36.6665ZM37.6211 35.0795H39.7518C40.0984 35.0795 40.3697 34.9972 40.5657 34.8324C40.7617 34.6676 40.8597 34.4432 40.8597 34.1591C40.8597 33.821 40.7617 33.5554 40.5657 33.3622C40.3697 33.1662 40.0984 33.0682 39.7518 33.0682H37.6211V35.0795ZM37.6211 32.1989H39.3427C39.6126 32.1989 39.8441 32.1619 40.0373 32.0881C40.2305 32.0114 40.3782 31.9034 40.4805 31.7642C40.5856 31.6222 40.6381 31.4545 40.6381 31.2614C40.6381 30.9858 40.5231 30.7699 40.293 30.6136C40.0629 30.4545 39.7461 30.375 39.3427 30.375H37.6211V32.1989ZM46.1491 36.1364C45.5185 36.1364 44.9744 35.9972 44.517 35.7188C44.0625 35.4375 43.7116 35.0455 43.4645 34.5426C43.2202 34.0369 43.098 33.4489 43.098 32.7784C43.098 32.108 43.2202 31.517 43.4645 31.0057C43.7116 30.4915 44.0554 30.0909 44.4957 29.804C44.9389 29.5142 45.456 29.3693 46.0469 29.3693C46.3878 29.3693 46.7244 29.4261 47.0568 29.5398C47.3892 29.6534 47.6918 29.8381 47.9645 30.0938C48.2372 30.3466 48.4545 30.6818 48.6165 31.0994C48.7784 31.517 48.8594 32.0312 48.8594 32.642V33.0682H43.8139V32.1989H47.8366C47.8366 31.8295 47.7628 31.5 47.6151 31.2102C47.4702 30.9205 47.2628 30.6918 46.9929 30.5241C46.7259 30.3565 46.4105 30.2727 46.0469 30.2727C45.6463 30.2727 45.2997 30.3722 45.0071 30.571C44.7173 30.767 44.4943 31.0227 44.3381 31.3381C44.1818 31.6534 44.1037 31.9915 44.1037 32.3523V32.9318C44.1037 33.4261 44.1889 33.8452 44.3594 34.1889C44.5327 34.5298 44.7727 34.7898 45.0795 34.9688C45.3864 35.1449 45.7429 35.233 46.1491 35.233C46.4134 35.233 46.652 35.196 46.8651 35.1222C47.081 35.0455 47.267 34.9318 47.4233 34.7812C47.5795 34.6278 47.7003 34.4375 47.7855 34.2102L48.7571 34.483C48.6548 34.8125 48.483 35.1023 48.2415 35.3523C48 35.5994 47.7017 35.7926 47.3466 35.9318C46.9915 36.0682 46.5923 36.1364 46.1491 36.1364ZM50.3892 38.4545V29.4545H51.3608V30.4943H51.4801C51.554 30.3807 51.6563 30.2358 51.7869 30.0597C51.9205 29.8807 52.1108 29.7216 52.358 29.5824C52.608 29.4403 52.946 29.3693 53.3722 29.3693C53.9233 29.3693 54.4091 29.5071 54.8295 29.7827C55.25 30.0582 55.5781 30.4489 55.8139 30.9545C56.0497 31.4602 56.1676 32.0568 56.1676 32.7443C56.1676 33.4375 56.0497 34.0384 55.8139 34.5469C55.5781 35.0526 55.2514 35.4446 54.8338 35.723C54.4162 35.9986 53.9347 36.1364 53.3892 36.1364C52.9688 36.1364 52.6321 36.0668 52.3793 35.9276C52.1264 35.7855 51.9318 35.625 51.7955 35.446C51.6591 35.2642 51.554 35.1136 51.4801 34.9943H51.3949V38.4545H50.3892ZM51.3778 32.7273C51.3778 33.2216 51.4503 33.6577 51.5952 34.0355C51.7401 34.4105 51.9517 34.7045 52.2301 34.9176C52.5085 35.1278 52.8494 35.233 53.2528 35.233C53.6733 35.233 54.0241 35.1222 54.3054 34.9006C54.5895 34.6761 54.8026 34.375 54.9446 33.9972C55.0895 33.6165 55.1619 33.1932 55.1619 32.7273C55.1619 32.267 55.0909 31.8523 54.9489 31.483C54.8097 31.1108 54.598 30.8168 54.3139 30.6009C54.0327 30.3821 53.679 30.2727 53.2528 30.2727C52.8438 30.2727 52.5 30.3764 52.2216 30.5838C51.9432 30.7884 51.733 31.0753 51.5909 31.4446C51.4489 31.8111 51.3778 32.2386 51.3778 32.7273ZM58.1822 29.4545L59.7504 32.1307L61.3185 29.4545H62.4776L60.364 32.7273L62.4776 36H61.3185L59.7504 33.4602L58.1822 36H57.0231L59.1026 32.7273L57.0231 29.4545H58.1822Z" fill="white"/>
</svg>
