<svg xmlns="http://www.w3.org/2000/svg" viewBox="0 0 213.75 58.06"><defs><style>.cls-1{fill:#f9436c;}.cls-2{fill:#fff;}.cls-3{fill:#44b57c;}.cls-4{fill:#fa7f43;}.cls-5{fill:#3aa1a4;}</style></defs><g id="Слой_2" data-name="Слой 2"><g id="Слой_1-2" data-name="Слой 1"><rect class="cls-1" x="120.54" y="15.01" width="77.13" height="28.56"/><rect y="22.2" width="141.9" height="29.72"/><polygon class="cls-2" points="120.53 21.92 142.19 21.92 142.19 43.57 134.37 43.57 134.37 35.26 126.26 43.37 120.53 43.37 120.53 37.73 128.73 29.54 120.53 29.54 120.53 21.92"/><circle class="cls-2" cx="183.33" cy="29.55" r="2.13"/><circle class="cls-3" cx="204.74" cy="47.42" r="4.5"/><circle class="cls-4" cx="208.53" cy="23.9" r="5.22"/><circle class="cls-1" cx="183.83" cy="53.6" r="4.46"/><circle class="cls-5" cx="176.43" cy="5.87" r="5.87"/><circle class="cls-1" cx="196.93" cy="6.06" r="3.22"/><path class="cls-2" d="M154.72,37.38a10.61,10.61,0,0,1-3-.44,7.15,7.15,0,0,1-2.49-1.28l1.17-1.82a5.36,5.36,0,0,0,1.24.79,7.67,7.67,0,0,0,1.51.51,7.91,7.91,0,0,0,1.6.17,4.46,4.46,0,0,0,2.36-.55,1.79,1.79,0,0,0,.9-1.62,1.76,1.76,0,0,0-.62-1.35,5.84,5.84,0,0,0-2.26-1l-1.53-.45a6.83,6.83,0,0,1-3.07-1.61,3.43,3.43,0,0,1-1-2.49,4,4,0,0,1,.4-1.78,4.08,4.08,0,0,1,1.13-1.39,5.31,5.31,0,0,1,1.72-.9,7.43,7.43,0,0,1,2.17-.31,8.68,8.68,0,0,1,2.79.44,6.2,6.2,0,0,1,2.13,1.17l-1.21,1.77a4.86,4.86,0,0,0-1.07-.71,5.73,5.73,0,0,0-1.32-.46,6.18,6.18,0,0,0-1.42-.16,4.57,4.57,0,0,0-1.59.26,2.41,2.41,0,0,0-1.07.75,1.9,1.9,0,0,0-.38,1.19,1.61,1.61,0,0,0,.26.9,2.16,2.16,0,0,0,.88.69,10.66,10.66,0,0,0,1.71.64l1.62.48a6.92,6.92,0,0,1,3,1.58,3.44,3.44,0,0,1,1,2.53,4.15,4.15,0,0,1-.65,2.33,4.31,4.31,0,0,1-1.9,1.57A7.17,7.17,0,0,1,154.72,37.38Z"/><path class="cls-2" d="M163.23,37.06V22.15h9.64v2.11h-7.25v4h6.26v2h-6.26v4.65h7.31v2.13Z"/><path class="cls-2" d="M183.2,37.38a8.21,8.21,0,0,1-3.12-.59,7.68,7.68,0,0,1-2.49-1.65,7.34,7.34,0,0,1-1.65-2.47,8.28,8.28,0,0,1,0-6.14,7.34,7.34,0,0,1,1.65-2.47,7.65,7.65,0,0,1,2.49-1.64,8.21,8.21,0,0,1,3.12-.59,7.93,7.93,0,0,1,3.1.6,7.71,7.71,0,0,1,2.49,1.66,7.58,7.58,0,0,1,1.65,2.48,8.05,8.05,0,0,1,0,6.1,7.34,7.34,0,0,1-1.65,2.47,7.68,7.68,0,0,1-2.49,1.65A8.11,8.11,0,0,1,183.2,37.38Zm0-2.26a5.6,5.6,0,0,0,2.1-.39,4.89,4.89,0,0,0,1.7-1.12,5.09,5.09,0,0,0,1.13-1.74,6.44,6.44,0,0,0-.29-5.18,5.15,5.15,0,0,0-1.93-1.92,5.48,5.48,0,0,0-2.71-.68,5.6,5.6,0,0,0-2.1.39,5,5,0,0,0-1.71,1.12,5.26,5.26,0,0,0-1.14,1.74,6,6,0,0,0-.41,2.27,5.71,5.71,0,0,0,.72,2.91,4.92,4.92,0,0,0,1.92,1.92A5.46,5.46,0,0,0,183.2,35.12Z"/><path class="cls-2" d="M15.36,49.15a17.59,17.59,0,0,1-5.45-.85,12.73,12.73,0,0,1-4.48-2.45l3.12-5a6.16,6.16,0,0,0,1.84,1.4,11.59,11.59,0,0,0,2.47.94,10.3,10.3,0,0,0,2.5.33,5.53,5.53,0,0,0,2.2-.38c.58-.26.87-.62.87-1.09a1.34,1.34,0,0,0-.66-1.13,9.29,9.29,0,0,0-2.48-.9l-1.73-.47a11.06,11.06,0,0,1-5.45-2.88,6.66,6.66,0,0,1-.94-7.32A7.32,7.32,0,0,1,9.11,27,9,9,0,0,1,12,25.38a11.31,11.31,0,0,1,3.65-.57,16.16,16.16,0,0,1,5.29.83,10,10,0,0,1,3.9,2.27l-3.24,4.85a5.57,5.57,0,0,0-1.5-1.21,8.68,8.68,0,0,0-4.25-1.13,5,5,0,0,0-1.53.21,2.62,2.62,0,0,0-1,.56A1.15,1.15,0,0,0,13,32a.89.89,0,0,0,.3.69,3.18,3.18,0,0,0,1,.51c.47.17,1.09.37,1.88.6l1.71.5a13.2,13.2,0,0,1,5.47,2.76A5.66,5.66,0,0,1,25,41.3a7.11,7.11,0,0,1-1.2,4.09,8.07,8.07,0,0,1-3.37,2.77A12.15,12.15,0,0,1,15.36,49.15Z"/><path class="cls-2" d="M28.38,48.65V25.28H45.71v5.81H35.13v3h8.68v5.31H35.13v3.34H45.85v5.88Z"/><path class="cls-2" d="M54,48.65V31.42H48V25.28h18.8v6.14h-6V48.65Z"/><path class="cls-2" d="M80.06,49.15a11.4,11.4,0,0,1-5.71-1.32,8.58,8.58,0,0,1-3.49-3.67,12,12,0,0,1-1.19-5.46V25.28h6.75V39.07a3.8,3.8,0,0,0,.94,2.84,3.69,3.69,0,0,0,2.7.93,3.65,3.65,0,0,0,2.67-.93,3.84,3.84,0,0,0,.93-2.84V25.28h6.78V38.7a11.94,11.94,0,0,1-1.18,5.44,8.63,8.63,0,0,1-3.5,3.68A11.23,11.23,0,0,1,80.06,49.15Z"/><path class="cls-2" d="M95.43,48.65V25.28h10a11.41,11.41,0,0,1,4.79.95,7.41,7.41,0,0,1,4.52,7.13,8.09,8.09,0,0,1-1.12,4.37,7.15,7.15,0,0,1-3.23,2.76,12.6,12.6,0,0,1-5.13.95h-3.07v7.21Zm6.75-12.79H105a3.93,3.93,0,0,0,2.21-.53,2.07,2.07,0,0,0,.8-1.87,2.06,2.06,0,0,0-.84-1.92A3.93,3.93,0,0,0,105,31h-2.84Z"/><path class="cls-2" d="M186.72,34.69h5.55a1.39,1.39,0,0,1,1.39,1.39v0a1.39,1.39,0,0,1-1.39,1.39h-5.55a.2.2,0,0,1-.2-.2V34.89a.2.2,0,0,1,.2-.2Z" transform="translate(81.19 -123.85) rotate(45)"/></g></g></svg>