<svg width="120" height="152" viewBox="0 0 120 152" fill="none" xmlns="http://www.w3.org/2000/svg">
<g clip-path="url(#clip0_442_1088)">
<path d="M19.1757 37.5805C24.765 37.5805 29.2961 33.0414 29.2961 27.4421C29.2961 21.8428 24.765 17.3037 19.1757 17.3037C13.5863 17.3037 9.05518 21.8428 9.05518 27.4421C9.05518 33.0414 13.5863 37.5805 19.1757 37.5805Z" fill="#DA4059"/>
<path d="M90.856 54.4273C95.5629 54.4273 99.3785 50.6049 99.3785 45.8897C99.3785 41.1745 95.5629 37.3521 90.856 37.3521C86.1492 37.3521 82.3335 41.1745 82.3335 45.8897C82.3335 50.6049 86.1492 54.4273 90.856 54.4273Z" stroke="#DA4059" stroke-width="2.8346" stroke-miterlimit="10"/>
<path d="M56.0811 90.8648C60.788 90.8648 64.6036 87.0424 64.6036 82.3272C64.6036 77.612 60.788 73.7896 56.0811 73.7896C51.3742 73.7896 47.5586 77.612 47.5586 82.3272C47.5586 87.0424 51.3742 90.8648 56.0811 90.8648Z" stroke="#DA4059" stroke-width="2.8346" stroke-miterlimit="10"/>
<path d="M90.856 118.154C95.5629 118.154 99.3785 114.332 99.3785 109.617C99.3785 104.902 95.5629 101.079 90.856 101.079C86.1492 101.079 82.3335 104.902 82.3335 109.617C82.3335 114.332 86.1492 118.154 90.856 118.154Z" stroke="#DA4059" stroke-width="2.8346" stroke-miterlimit="10"/>
<path d="M61.3316 134.01C44.4387 134.925 30.9701 139.651 31.1984 144.53C31.4267 149.484 45.3519 152.686 62.2447 151.848C79.1375 150.933 92.6062 146.207 92.3779 141.328C92.1496 136.373 78.2244 133.095 61.3316 134.01ZM62.0925 148.646C48.7761 149.332 37.8186 146.816 37.6664 142.929C37.4381 139.041 48.0912 135.382 61.4077 134.62C74.7241 133.858 85.6816 136.449 85.8338 140.337C85.986 144.301 75.4089 147.96 62.0925 148.646Z" fill="#DA4059"/>
<path d="M61.8748 146.046C75.1782 145.343 85.8211 142.081 85.6464 138.76C85.4717 135.439 74.5455 133.316 61.242 134.018C47.9386 134.721 37.2957 137.982 37.4704 141.304C37.6452 144.625 48.5714 146.748 61.8748 146.046Z" fill="#DA4059"/>
<path d="M61.7616 142.235C72.2952 141.679 80.7516 139.654 80.6494 137.713C80.5473 135.771 71.9253 134.648 61.3917 135.204C50.858 135.76 42.4017 137.785 42.5038 139.727C42.606 141.668 51.228 142.791 61.7616 142.235Z" fill="white"/>
<path d="M53.4941 0V13.1113C53.4941 13.1113 13.5448 20.4293 18.567 40.7061C23.5892 60.983 57.6792 59.7633 66.8866 59.3821C76.17 59.001 106.988 54.1224 107.216 43.679C107.369 33.1595 89.2582 29.8816 67.2671 32.321C45.2759 34.7603 7.229 45.5847 7.229 65.1755C7.229 84.7663 49.3089 93.1515 72.5175 92.0843C95.7262 91.017 120.304 83.8515 118.935 73.5607C117.565 63.2698 90.4757 62.2026 66.9627 65.8616C43.3736 69.5206 20.3932 78.5918 20.5454 97.6489C20.6976 116.706 43.0692 121.051 61.56 121.737C80.0508 122.423 96.7915 119.831 105.01 113.352C113.228 106.873 111.5 103.803 108.662 101.308C104.5 97.6489 95.7262 92.7703 82.4858 100.241C69.1694 107.864 62.5001 114.5 60.1142 123.567C57.7284 132.633 61.1795 144.225 61.1795 144.225" stroke="#DA4059" stroke-width="2" stroke-miterlimit="10"/>
<path d="M1.59789 22.1826C1.59789 22.1826 -0.152269 28.8145 2.89148 32.7022C5.93524 36.5898 9.89212 37.5808 9.89212 37.5808" stroke="#DA4059" stroke-width="2" stroke-miterlimit="10"/>
<path d="M113.913 38.4956C113.913 38.4956 116.119 45.3562 114.597 48.4053C112.162 53.4364 108.206 55.0372 108.206 55.0372" stroke="#DA4059" stroke-width="2" stroke-miterlimit="10"/>
</g>
<defs>
<clipPath id="clip0_442_1088">
<rect width="120" height="152" fill="white"/>
</clipPath>
</defs>
</svg>
