<svg width="171" height="171" viewBox="0 0 171 171" fill="none" xmlns="http://www.w3.org/2000/svg">
<g clip-path="url(#clip0_442_1072)">
<path d="M37.6709 82.7728C43.8425 82.4634 48.5954 77.2243 48.2869 71.071C47.9784 64.9176 42.7253 60.1802 36.5538 60.4896C30.3822 60.799 25.6292 66.0381 25.9377 72.1914C26.2462 78.3447 31.4993 83.0822 37.6709 82.7728Z" fill="#DA4059"/>
<path d="M69.2446 127.395C75.4162 127.085 80.1692 121.846 79.8607 115.693C79.5522 109.54 74.2991 104.802 68.1275 105.112C61.9559 105.421 57.203 110.66 57.5114 116.813C57.8199 122.967 63.0731 127.704 69.2446 127.395Z" stroke="#DA4059" stroke-width="2.8346" stroke-miterlimit="10"/>
<path d="M120.712 157.279C126.883 156.97 131.636 151.731 131.328 145.577C131.019 139.424 125.766 134.687 119.595 134.996C113.423 135.305 108.67 140.544 108.978 146.698C109.287 152.851 114.54 157.589 120.712 157.279Z" stroke="#DA4059" stroke-width="2.8346" stroke-miterlimit="10"/>
<path d="M57.7037 82.3473L17.1399 82.897L17.1987 87.3106L57.7626 86.7609L57.7037 82.3473Z" fill="#DA4059"/>
<path d="M91.8539 126.922L51.29 127.471L51.3489 131.885L91.9127 131.335L91.8539 126.922Z" fill="#DA4059"/>
<path d="M144.655 149.51L105.57 160.355L106.756 164.607L145.841 153.762L144.655 149.51Z" fill="#DA4059"/>
<path d="M1.12549 8.10498L1.96133 24.7773" stroke="#DA4059" stroke-width="2" stroke-miterlimit="10"/>
<path d="M43 8L43.7635 23.2295" stroke="#DA4059" stroke-width="2" stroke-miterlimit="10"/>
<path d="M23.1108 28.6625C35.2763 28.0526 45.0309 25.4132 44.8983 22.7673C44.7656 20.1214 34.796 18.4708 22.6304 19.0807C10.4649 19.6906 0.710316 22.33 0.842965 24.9759C0.975614 27.6218 10.9453 29.2724 23.1108 28.6625Z" fill="#DA4059"/>
<path d="M23.0519 27.4872C14.2825 27.9268 7.08302 26.8008 6.98909 24.9272C6.89516 23.0536 13.9459 21.2131 22.7153 20.7735C31.4846 20.3338 38.6841 21.4599 38.778 23.3335C38.872 25.2071 31.8212 27.0476 23.0519 27.4872Z" fill="white"/>
<path d="M109.3 148.289C98.9052 143.506 89.1014 137.65 80.1296 130.707" stroke="#DA4059" stroke-width="2" stroke-miterlimit="10"/>
<path d="M170.82 161.677C157.359 161.629 144.291 159.793 131.87 156.398" stroke="#DA4059" stroke-width="2" stroke-miterlimit="10"/>
<path d="M58.8983 110.717C39.3953 88.2307 26.6897 59.8589 24.0613 28.3301" stroke="#DA4059" stroke-width="2" stroke-miterlimit="10"/>
<path d="M11.6806 33.7722C11.6806 33.7722 10.567 45.3191 11.9698 50.7934C13.3725 56.2677 16.0777 61.9981 16.0777 61.9981" stroke="#DA4059" stroke-width="2" stroke-miterlimit="10"/>
<path d="M91.6465 103.209C91.6465 103.209 97.1493 110.085 102.29 114.569C107.009 118.671 113.405 120.842 113.405 120.842" stroke="#DA4059" stroke-width="2" stroke-miterlimit="10"/>
</g>
<defs>
<clipPath id="clip0_442_1072">
<rect width="163" height="163" fill="white" transform="translate(0 8.16162) rotate(-2.87003)"/>
</clipPath>
</defs>
</svg>
