<svg width="218" height="132" viewBox="0 0 218 132" fill="none" xmlns="http://www.w3.org/2000/svg">
<g clip-path="url(#clip0_442_1045)">
<path d="M73.1867 40.2729C77.9221 33.0008 69.697 19.3063 54.8155 9.68538C39.934 0.0645127 24.0314 -1.83949 19.296 5.43268C14.5607 12.7048 22.7858 26.3994 37.6673 36.0202C52.5488 45.6411 68.4514 47.5451 73.1867 40.2729Z" fill="#DA4059"/>
<path d="M57.2129 26.7503C58.876 24.1962 55.9817 19.3829 50.7483 15.9995C45.5149 12.616 39.9241 11.9438 38.2609 14.4979C36.5978 17.052 39.4921 21.8654 44.7255 25.2488C49.9589 28.6322 55.5497 29.3045 57.2129 26.7503Z" fill="white"/>
<path d="M176.2 102.07C184.262 89.6898 186.381 76.7987 180.934 73.2772C175.487 69.7557 164.536 76.9372 156.475 89.3176C148.413 101.698 146.293 114.589 151.74 118.111C157.188 121.632 168.138 114.451 176.2 102.07Z" fill="#DA4059"/>
<path d="M170.466 98.3631C175.178 91.1264 176.401 83.5807 173.197 81.5092C169.993 79.4377 163.575 83.625 158.863 90.8616C154.151 98.0983 152.928 105.644 156.132 107.716C159.336 109.787 165.754 105.6 170.466 98.3631Z" fill="white"/>
<path d="M73.6566 43.9479C79.2467 35.3632 70.9063 20.0823 55.028 9.81694C39.1496 -0.448395 21.7461 -1.81081 16.1561 6.77389C10.566 15.3586 18.9064 30.6396 34.7847 40.9049C50.6631 51.1702 68.0666 52.5326 73.6566 43.9479Z" stroke="#DA4059" stroke-width="2.8346" stroke-miterlimit="10"/>
<path d="M1.07568 77.3318C1.07568 77.3318 4.76409 76.2599 9.14407 69.4455C13.524 62.6311 18.5188 56.123 26.7408 56.4293C35.0397 56.8121 37.806 56.4293 37.806 56.4293C37.806 56.4293 20.363 50.6868 21.2082 43.949C22.0535 37.2877 29.8913 37.3643 29.8913 37.3643" stroke="#DA4059" stroke-width="2" stroke-miterlimit="10" stroke-linecap="round" stroke-linejoin="round"/>
<path d="M150.072 57.4244C156.438 57.4244 161.598 52.2825 161.598 45.9395C161.598 39.5966 156.438 34.4546 150.072 34.4546C143.706 34.4546 138.546 39.5966 138.546 45.9395C138.546 52.2825 143.706 57.4244 150.072 57.4244Z" fill="#DA4059"/>
<path d="M65.9302 8.72832C65.9302 8.72832 83.3733 -3.90509 114.571 3.67496C145.769 11.255 157.372 38.5891 157.372 38.5891" stroke="#DA4059" stroke-width="2" stroke-miterlimit="10" stroke-linecap="round" stroke-linejoin="round"/>
<path d="M91.5186 15.4666C97.4354 14.3181 105.196 14.0884 114.648 16.6151C137.931 22.8169 146.691 45.4039 146.691 45.4039" stroke="#DA4059" stroke-width="2" stroke-miterlimit="10" stroke-linecap="round" stroke-linejoin="round"/>
<path d="M155.297 118.601L192.642 130.928L216.924 128.478" stroke="#DA4059" stroke-width="2" stroke-miterlimit="10" stroke-linecap="round" stroke-linejoin="round"/>
<path d="M212.851 93.4874L198.943 94.4062L181.884 75.2646" stroke="#DA4059" stroke-width="2" stroke-miterlimit="10" stroke-linecap="round" stroke-linejoin="round"/>
</g>
<defs>
<clipPath id="clip0_442_1045">
<rect width="218" height="132" fill="white"/>
</clipPath>
</defs>
</svg>
